<svg width="33" height="32" viewBox="0 0 33 32" fill="none" xmlns="http://www.w3.org/2000/svg">
<path d="M30.8929 10.6555H28.2049V8.99156C28.2049 8.63959 27.9168 8.35156 27.5649 8.35156C23.6929 8.35156 19.8849 9.11959 16.3009 10.5916C12.7169 9.08762 8.94087 8.35156 5.03687 8.35156C4.68489 8.35156 4.39687 8.63959 4.39687 8.99156V10.6555H1.77281C1.42084 10.6555 1.13281 10.9435 1.13281 11.2955V28.0955C1.13281 28.4475 1.42084 28.7355 1.77281 28.7355H30.9248C31.2768 28.7355 31.5648 28.4475 31.5648 28.0955V11.2955C31.5328 10.9434 31.2448 10.6555 30.8929 10.6555ZM2.38087 27.4555V11.9035H4.46087V25.7595C4.46087 26.1115 4.74889 26.3995 5.10087 26.3995C7.66087 26.3995 10.1569 26.7835 12.5889 27.4556L2.38087 27.4555ZM15.6929 27.1675C12.4929 25.9195 9.13287 25.2155 5.67687 25.1514V9.63143C9.16487 9.69549 12.4929 10.3995 15.6929 11.7114V27.1675ZM16.9729 11.7115C20.1729 10.3995 23.5329 9.69543 26.9889 9.59951V25.1515C23.5009 25.2476 20.1729 25.9195 16.9729 27.1676V11.7115ZM30.2849 27.4555H20.0769C22.5088 26.7835 25.0049 26.3994 27.5649 26.3994C27.9168 26.3994 28.2049 26.1114 28.2049 25.7594V11.9034H30.2849V27.4555Z" fill="black"/>
<path d="M8.04668 13.6017C9.74273 13.7937 11.4387 14.1137 13.0707 14.6256C13.1346 14.6576 13.1987 14.6576 13.2627 14.6576C13.5187 14.6576 13.7746 14.4656 13.8707 14.2096C13.9667 13.8896 13.7746 13.5376 13.4546 13.4416C11.7266 12.9296 9.96663 12.5776 8.20663 12.3855C7.85466 12.3535 7.56663 12.6095 7.50269 12.9295C7.47081 13.2497 7.72675 13.5697 8.04674 13.6016L8.04668 13.6017Z" fill="black"/>
<path d="M8.04668 16.6408C9.74273 16.8327 11.4387 17.1527 13.0707 17.6647C13.1346 17.6967 13.1987 17.6967 13.2627 17.6967C13.5187 17.6967 13.7746 17.5367 13.8707 17.2487C13.9667 16.9287 13.7746 16.5767 13.4546 16.4806C11.7266 15.9687 9.96663 15.6167 8.20663 15.4246C7.85466 15.3926 7.56663 15.6485 7.50269 15.9685C7.47081 16.2887 7.72675 16.6087 8.04674 16.6407L8.04668 16.6408Z" fill="black"/>
<path d="M8.04668 19.6486C9.74273 19.8406 11.4387 20.1605 13.0707 20.6725C13.1346 20.7045 13.1987 20.7045 13.2627 20.7045C13.5187 20.7045 13.7746 20.5445 13.8707 20.2565C13.9667 19.9365 13.7746 19.5845 13.4546 19.4884C11.7266 18.9765 9.96663 18.6245 8.20663 18.4324C7.85466 18.4004 7.56663 18.6563 7.50269 18.9763C7.47081 19.3285 7.72675 19.6166 8.04674 19.6485L8.04668 19.6486Z" fill="black"/>
<path d="M8.04668 22.6876C9.74273 22.8796 11.4387 23.1996 13.0707 23.7116C13.1346 23.7436 13.1987 23.7436 13.2627 23.7436C13.5187 23.7436 13.7746 23.5836 13.8707 23.2955C13.9667 22.9755 13.7746 22.6236 13.4546 22.5275C11.7266 22.0155 9.96663 21.6636 8.20663 21.4715C7.85466 21.4395 7.56663 21.6954 7.50269 22.0154C7.47081 22.3356 7.72675 22.6556 8.04674 22.6876L8.04668 22.6876Z" fill="black"/>
<path d="M24.4623 12.3542C22.7023 12.5462 20.9103 12.8982 19.2143 13.4103C18.8943 13.5063 18.7023 13.8583 18.7982 14.1783C18.8942 14.4343 19.1182 14.6263 19.4062 14.6263C19.4702 14.6263 19.5342 14.6263 19.5982 14.5943C21.2622 14.1143 22.9582 13.7624 24.6222 13.5704C24.9742 13.5384 25.2302 13.2184 25.1662 12.8665C25.1343 12.5783 24.8143 12.3223 24.4623 12.3543L24.4623 12.3542Z" fill="black"/>
<path d="M24.4623 15.3926C22.7023 15.5846 20.9103 15.9366 19.2143 16.4487C18.8943 16.5447 18.7023 16.8967 18.7982 17.2167C18.8942 17.4727 19.1182 17.6647 19.4062 17.6647C19.4702 17.6647 19.5342 17.6647 19.5982 17.6328C21.2302 17.1528 22.9262 16.8008 24.6222 16.6088C24.9742 16.5768 25.2302 16.2568 25.1662 15.9049C25.1343 15.5846 24.8143 15.3287 24.4623 15.3927L24.4623 15.3926Z" fill="black"/>
<path d="M24.4623 18.4317C22.7023 18.6237 20.9103 18.9756 19.2143 19.4877C18.8943 19.5838 18.7023 19.9358 18.7982 20.2558C18.8942 20.5118 19.1182 20.7038 19.4062 20.7038C19.4702 20.7038 19.5342 20.7038 19.5982 20.6718C21.2302 20.1918 22.9262 19.8398 24.6222 19.6479C24.9742 19.6159 25.2302 19.2959 25.1662 18.9439C25.1343 18.6237 24.8143 18.3678 24.4623 18.4317L24.4623 18.4317Z" fill="black"/>
<path d="M24.4623 21.4402C22.7023 21.6321 20.9103 21.9841 19.2143 22.4962C18.8943 22.5923 18.7023 22.9442 18.7982 23.2642C18.8942 23.5203 19.1182 23.7123 19.4062 23.7123C19.4702 23.7123 19.5342 23.7123 19.5982 23.6803C21.2302 23.2003 22.9262 22.8483 24.6222 22.6563C24.9742 22.6244 25.2302 22.3044 25.1662 21.9524C25.1343 21.6642 24.8143 21.4082 24.4623 21.4402L24.4623 21.4402Z" fill="black"/>
<path d="M16.3353 6.7849C16.6873 6.7849 16.9753 6.49688 16.9753 6.1449V3.93687C16.9753 3.5849 16.6873 3.29688 16.3353 3.29688C15.9833 3.29688 15.6953 3.5849 15.6953 3.93687V6.1449C15.6953 6.49698 15.9833 6.7849 16.3353 6.7849Z" fill="black"/>
<path d="M12.6483 7.29718C12.7763 7.48915 12.9683 7.61718 13.1922 7.61718C13.2882 7.61718 13.4162 7.5852 13.5122 7.52113C13.8322 7.36113 13.9283 6.94508 13.7362 6.65719L12.6162 4.73719C12.4562 4.44916 12.0401 4.32113 11.7522 4.51323C11.4322 4.67323 11.3362 5.08928 11.5283 5.37718L12.6483 7.29718Z" fill="black"/>
<path d="M19.1506 7.52106C19.2467 7.58501 19.3746 7.6171 19.4706 7.6171C19.6946 7.6171 19.9187 7.48908 20.0146 7.2971L21.1346 5.3771C21.2946 5.08907 21.1985 4.67315 20.9106 4.51315C20.5906 4.32117 20.2067 4.4492 20.0467 4.73711L18.9267 6.65711C18.7346 6.97711 18.8306 7.36106 19.1506 7.52106Z" fill="black"/>
</svg>
