<svg width="16" height="17" viewBox="0 0 16 17" fill="none" xmlns="http://www.w3.org/2000/svg">
<path d="M8 0.375C3.58899 0.375 0 3.96399 0 8.375C0 12.786 3.58899 16.375 8 16.375C12.411 16.375 16 12.786 16 8.375C16 3.96399 12.411 0.375 8 0.375ZM8 14.8098C4.45188 14.8098 1.56522 11.9231 1.56522 8.375C1.56522 4.82688 4.45188 1.94022 8 1.94022C11.5481 1.94022 14.4348 4.82688 14.4348 8.375C14.4348 11.9231 11.5481 14.8098 8 14.8098Z" fill="black"/>
<path d="M8.78397 3.07031H7.21875V8.66756L9.75875 11.5841L10.9395 10.5569L8.78381 8.08212L8.78397 3.07031Z" fill="black"/>
</svg>
