<svg width="826" height="439" viewBox="0 0 826 439" fill="none" xmlns="http://www.w3.org/2000/svg">
<rect width="826" height="439" fill="#F9EDDD"/>
<path d="M55.074 152.004C58.35 152.004 60.212 153.908 60.212 156.834C60.212 159.76 58.35 162 55.158 162H52.064V152.004H55.074ZM53.394 160.88H55.2C57.23 160.88 58.882 159.508 58.882 156.834C58.882 154.272 57.23 153.124 55.144 153.124H53.394V160.88ZM67.986 159.844C67.58 161.384 66.362 162.168 64.752 162.168C62.61 162.168 61.196 160.614 61.196 158.346C61.196 156.162 62.68 154.594 64.724 154.594C67.272 154.594 68.07 156.638 68.098 158.5V158.724H62.414C62.512 160.236 63.436 161.118 64.724 161.118C65.69 161.118 66.502 160.74 66.754 159.844H67.986ZM62.428 157.716H66.824C66.712 156.456 66.012 155.63 64.724 155.63C63.422 155.63 62.596 156.47 62.428 157.716ZM70.0097 153.95C70.0097 152.942 70.5557 152.004 71.8437 152.004H72.6277V153.068H72.1657C71.6197 153.068 71.2417 153.25 71.2417 154.006V154.762H72.4597V155.798H71.2417V162H70.0097V155.798H69.0157V154.762H70.0097V153.95ZM73.3879 156.946C73.5419 155.896 74.4239 154.58 76.3139 154.58C78.9739 154.58 79.2259 156.302 79.2259 157.422V160.53C79.2259 161.076 79.2819 161.65 79.3379 162H77.9939C77.9659 161.65 77.9659 161.356 77.9659 160.95V160.67H77.9519C77.7839 161.23 77.1819 162.168 75.5719 162.168C73.8359 162.168 73.0379 161.062 73.0379 160.026C73.0379 157.982 75.6139 157.912 76.7059 157.716C77.6579 157.548 77.9659 157.282 77.9659 156.68C77.9659 156.078 77.3919 155.644 76.3559 155.644C75.4739 155.644 74.8159 156.162 74.6479 156.946H73.3879ZM74.2839 160.026C74.2839 160.712 74.9139 161.146 75.7959 161.146C76.9019 161.146 77.9939 160.432 77.9939 158.64L77.9799 157.632C77.8399 158.108 77.5319 158.528 75.9639 158.808C74.9139 158.99 74.2839 159.298 74.2839 160.026ZM80.9338 159.452V154.762H82.1938V159.326C82.1938 160.6 82.7398 161.104 83.7198 161.104C84.7838 161.104 85.7218 160.208 85.7218 158.318V154.762H86.9818V162H85.7218V160.642C85.3438 161.468 84.6718 162.168 83.5518 162.168C81.6478 162.168 80.9338 160.922 80.9338 159.452ZM88.769 152.004H90.029V162H88.769V152.004ZM93.3439 159.97C93.3439 160.614 93.7079 160.964 94.2679 160.964H94.7719V162H94.1419C92.7419 162 92.1119 161.174 92.1119 160.054V155.798H91.0339V154.762H92.1119V153.068L93.3439 152.508V154.762H94.7299V155.798H93.3439V159.97ZM105.682 159.788C105.276 161.3 104.226 162.168 102.476 162.168C100.222 162.168 98.7664 160.572 98.7664 158.388C98.7664 156.204 100.222 154.594 102.476 154.594C104.324 154.594 105.318 155.616 105.626 156.932H104.366C104.1 156.274 103.61 155.63 102.434 155.63C100.964 155.63 100.026 156.834 100.026 158.388C100.026 159.928 100.964 161.118 102.434 161.118C103.484 161.118 104.086 160.642 104.408 159.788H105.682ZM107.117 162V152.004H108.377V156.12C108.755 155.294 109.427 154.594 110.547 154.594C112.451 154.594 113.165 155.84 113.165 157.31V162H111.905V157.436C111.905 156.162 111.359 155.658 110.379 155.658C109.315 155.658 108.377 156.554 108.377 158.444V162H107.117ZM121.238 159.844C120.832 161.384 119.614 162.168 118.004 162.168C115.862 162.168 114.448 160.614 114.448 158.346C114.448 156.162 115.932 154.594 117.976 154.594C120.524 154.594 121.322 156.638 121.35 158.5V158.724H115.666C115.764 160.236 116.688 161.118 117.976 161.118C118.942 161.118 119.754 160.74 120.006 159.844H121.238ZM115.68 157.716H120.076C119.964 156.456 119.264 155.63 117.976 155.63C116.674 155.63 115.848 156.47 115.68 157.716ZM129.212 159.788C128.806 161.3 127.756 162.168 126.006 162.168C123.752 162.168 122.296 160.572 122.296 158.388C122.296 156.204 123.752 154.594 126.006 154.594C127.854 154.594 128.848 155.616 129.156 156.932H127.896C127.63 156.274 127.14 155.63 125.964 155.63C124.494 155.63 123.556 156.834 123.556 158.388C123.556 159.928 124.494 161.118 125.964 161.118C127.014 161.118 127.616 160.642 127.938 159.788H129.212ZM131.906 162H130.646V152.004H131.906V157.926L135.042 154.762H136.568L133.544 157.814L136.708 162H135.126L132.662 158.682L131.906 159.41V162ZM142.846 152.004H143.854L143.406 155.168H145.324L145.772 152.004H146.78L146.332 155.168H147.606V156.092H146.206L145.926 158.15H147.186V159.074H145.786L145.38 162H144.372L144.778 159.074H142.86L142.454 162H141.446L141.852 159.074H140.592V158.15H141.992L142.272 156.092H141.012V155.168H142.398L142.846 152.004ZM143 158.15H144.918L145.198 156.092H143.28L143 158.15ZM152.608 162H151.348V154.594H148.968V153.642C150.326 153.642 151.278 153.432 151.572 152.004H152.608V162Z" fill="black"/>
<path d="M55.074 278.004C58.35 278.004 60.212 279.908 60.212 282.834C60.212 285.76 58.35 288 55.158 288H52.064V278.004H55.074ZM53.394 286.88H55.2C57.23 286.88 58.882 285.508 58.882 282.834C58.882 280.272 57.23 279.124 55.144 279.124H53.394V286.88ZM67.986 285.844C67.58 287.384 66.362 288.168 64.752 288.168C62.61 288.168 61.196 286.614 61.196 284.346C61.196 282.162 62.68 280.594 64.724 280.594C67.272 280.594 68.07 282.638 68.098 284.5V284.724H62.414C62.512 286.236 63.436 287.118 64.724 287.118C65.69 287.118 66.502 286.74 66.754 285.844H67.986ZM62.428 283.716H66.824C66.712 282.456 66.012 281.63 64.724 281.63C63.422 281.63 62.596 282.47 62.428 283.716ZM70.0097 279.95C70.0097 278.942 70.5557 278.004 71.8437 278.004H72.6277V279.068H72.1657C71.6197 279.068 71.2417 279.25 71.2417 280.006V280.762H72.4597V281.798H71.2417V288H70.0097V281.798H69.0157V280.762H70.0097V279.95ZM73.3879 282.946C73.5419 281.896 74.4239 280.58 76.3139 280.58C78.9739 280.58 79.2259 282.302 79.2259 283.422V286.53C79.2259 287.076 79.2819 287.65 79.3379 288H77.9939C77.9659 287.65 77.9659 287.356 77.9659 286.95V286.67H77.9519C77.7839 287.23 77.1819 288.168 75.5719 288.168C73.8359 288.168 73.0379 287.062 73.0379 286.026C73.0379 283.982 75.6139 283.912 76.7059 283.716C77.6579 283.548 77.9659 283.282 77.9659 282.68C77.9659 282.078 77.3919 281.644 76.3559 281.644C75.4739 281.644 74.8159 282.162 74.6479 282.946H73.3879ZM74.2839 286.026C74.2839 286.712 74.9139 287.146 75.7959 287.146C76.9019 287.146 77.9939 286.432 77.9939 284.64L77.9799 283.632C77.8399 284.108 77.5319 284.528 75.9639 284.808C74.9139 284.99 74.2839 285.298 74.2839 286.026ZM80.9338 285.452V280.762H82.1938V285.326C82.1938 286.6 82.7398 287.104 83.7198 287.104C84.7838 287.104 85.7218 286.208 85.7218 284.318V280.762H86.9818V288H85.7218V286.642C85.3438 287.468 84.6718 288.168 83.5518 288.168C81.6478 288.168 80.9338 286.922 80.9338 285.452ZM88.769 278.004H90.029V288H88.769V278.004ZM93.3439 285.97C93.3439 286.614 93.7079 286.964 94.2679 286.964H94.7719V288H94.1419C92.7419 288 92.1119 287.174 92.1119 286.054V281.798H91.0339V280.762H92.1119V279.068L93.3439 278.508V280.762H94.7299V281.798H93.3439V285.97ZM105.682 285.788C105.276 287.3 104.226 288.168 102.476 288.168C100.222 288.168 98.7664 286.572 98.7664 284.388C98.7664 282.204 100.222 280.594 102.476 280.594C104.324 280.594 105.318 281.616 105.626 282.932H104.366C104.1 282.274 103.61 281.63 102.434 281.63C100.964 281.63 100.026 282.834 100.026 284.388C100.026 285.928 100.964 287.118 102.434 287.118C103.484 287.118 104.086 286.642 104.408 285.788H105.682ZM107.117 288V278.004H108.377V282.12C108.755 281.294 109.427 280.594 110.547 280.594C112.451 280.594 113.165 281.84 113.165 283.31V288H111.905V283.436C111.905 282.162 111.359 281.658 110.379 281.658C109.315 281.658 108.377 282.554 108.377 284.444V288H107.117ZM121.238 285.844C120.832 287.384 119.614 288.168 118.004 288.168C115.862 288.168 114.448 286.614 114.448 284.346C114.448 282.162 115.932 280.594 117.976 280.594C120.524 280.594 121.322 282.638 121.35 284.5V284.724H115.666C115.764 286.236 116.688 287.118 117.976 287.118C118.942 287.118 119.754 286.74 120.006 285.844H121.238ZM115.68 283.716H120.076C119.964 282.456 119.264 281.63 117.976 281.63C116.674 281.63 115.848 282.47 115.68 283.716ZM129.212 285.788C128.806 287.3 127.756 288.168 126.006 288.168C123.752 288.168 122.296 286.572 122.296 284.388C122.296 282.204 123.752 280.594 126.006 280.594C127.854 280.594 128.848 281.616 129.156 282.932H127.896C127.63 282.274 127.14 281.63 125.964 281.63C124.494 281.63 123.556 282.834 123.556 284.388C123.556 285.928 124.494 287.118 125.964 287.118C127.014 287.118 127.616 286.642 127.938 285.788H129.212ZM131.906 288H130.646V278.004H131.906V283.926L135.042 280.762H136.568L133.544 283.814L136.708 288H135.126L132.662 284.682L131.906 285.41V288ZM142.846 278.004H143.854L143.406 281.168H145.324L145.772 278.004H146.78L146.332 281.168H147.606V282.092H146.206L145.926 284.15H147.186V285.074H145.786L145.38 288H144.372L144.778 285.074H142.86L142.454 288H141.446L141.852 285.074H140.592V284.15H141.992L142.272 282.092H141.012V281.168H142.398L142.846 278.004ZM143 284.15H144.918L145.198 282.092H143.28L143 284.15ZM149.075 281.182C149.075 279.054 150.307 277.948 152.407 277.948C154.269 277.948 155.515 279.04 155.515 280.846C155.515 282.596 154.675 283.198 153.541 284.08C152.365 285.004 150.993 285.732 150.601 286.936H155.613V288H148.935C149.075 285.816 150.531 284.668 151.889 283.758C153.457 282.708 154.255 282.106 154.255 280.902C154.255 279.88 153.583 279.012 152.337 279.012C150.951 279.012 150.349 280.02 150.335 281.182H149.075Z" fill="black"/>
<rect x="228.641" y="58.75" width="544.975" height="98.8508" fill="white" stroke="#0151AF" stroke-width="1.5"/>
<path d="M265.407 111.503C264.735 114.311 262.047 116.879 257.679 116.879C252.039 116.879 248.943 112.823 248.943 107.999C248.943 103.175 252.039 99.1194 257.679 99.1194C261.975 99.1194 264.327 101.423 265.383 104.471H263.103C262.167 102.311 260.583 101.039 257.679 101.039C253.407 101.039 251.223 104.279 251.223 107.999C251.223 111.719 253.383 114.959 257.679 114.959C260.607 114.959 262.431 113.495 263.127 111.503H265.407ZM273.601 116.855C269.833 116.855 267.385 114.023 267.385 110.375C267.385 106.727 269.833 103.871 273.601 103.871C277.369 103.871 279.817 106.727 279.817 110.375C279.817 114.023 277.369 116.855 273.601 116.855ZM269.545 110.375C269.545 112.919 271.177 115.031 273.601 115.031C276.025 115.031 277.657 112.919 277.657 110.375C277.657 107.807 276.025 105.695 273.601 105.695C271.177 105.695 269.545 107.807 269.545 110.375ZM282.122 99.4314H284.282V116.567H282.122V99.4314ZM287.349 99.4314H289.509V116.567H287.349V99.4314ZM292.551 107.903C292.815 106.103 294.327 103.847 297.567 103.847C302.127 103.847 302.559 106.799 302.559 108.719V114.047C302.559 114.983 302.655 115.967 302.751 116.567H300.447C300.399 115.967 300.399 115.463 300.399 114.767V114.287H300.375C300.087 115.247 299.055 116.855 296.295 116.855C293.319 116.855 291.951 114.959 291.951 113.183C291.951 109.679 296.367 109.559 298.239 109.223C299.871 108.935 300.399 108.479 300.399 107.447C300.399 106.415 299.415 105.671 297.639 105.671C296.127 105.671 294.999 106.559 294.711 107.903H292.551ZM294.087 113.183C294.087 114.359 295.167 115.103 296.679 115.103C298.575 115.103 300.447 113.879 300.447 110.807L300.423 109.079C300.183 109.895 299.655 110.615 296.967 111.095C295.167 111.407 294.087 111.935 294.087 113.183ZM308.199 113.087C308.199 114.191 308.823 114.791 309.783 114.791H310.647V116.567H309.567C307.167 116.567 306.087 115.151 306.087 113.231V105.935H304.239V104.159H306.087V101.255L308.199 100.295V104.159H310.575V105.935H308.199V113.087ZM323.721 112.871C323.025 115.511 320.937 116.855 318.177 116.855C314.505 116.855 312.081 114.191 312.081 110.303C312.081 106.559 314.625 103.871 318.129 103.871C322.497 103.871 323.865 107.375 323.913 110.567V110.951H314.169C314.337 113.543 315.921 115.055 318.129 115.055C319.785 115.055 321.177 114.407 321.609 112.871H323.721ZM314.193 109.223H321.729C321.537 107.063 320.337 105.647 318.129 105.647C315.897 105.647 314.48 107.087 314.193 109.223ZM328.462 104.159V106.655C329.086 104.831 330.286 104.111 332.158 104.111V106.175C332.062 106.175 331.678 106.199 331.366 106.247C329.926 106.463 328.462 107.111 328.462 110.711V116.567H326.302V104.159H328.462ZM333.567 107.903C333.831 106.103 335.343 103.847 338.583 103.847C343.143 103.847 343.575 106.799 343.575 108.719V114.047C343.575 114.983 343.671 115.967 343.767 116.567H341.463C341.415 115.967 341.415 115.463 341.415 114.767V114.287H341.391C341.103 115.247 340.071 116.855 337.311 116.855C334.335 116.855 332.967 114.959 332.967 113.183C332.967 109.679 337.383 109.559 339.255 109.223C340.887 108.935 341.415 108.479 341.415 107.447C341.415 106.415 340.431 105.671 338.655 105.671C337.143 105.671 336.015 106.559 335.727 107.903H333.567ZM335.103 113.183C335.103 114.359 336.183 115.103 337.695 115.103C339.591 115.103 341.463 113.879 341.463 110.807L341.439 109.079C341.199 109.895 340.671 110.615 337.983 111.095C336.183 111.407 335.103 111.935 335.103 113.183ZM346.599 99.4314H348.759V116.567H346.599V99.4314Z" fill="#0151AF"/>
<path d="M577.696 111.304C577.056 115.336 573.76 117.512 569.824 117.512C565.024 117.512 560.864 114.248 560.864 108.712C560.864 103.144 565.024 99.976 569.824 99.976C573.792 99.976 577.056 102.216 577.632 105.992H573.408C572.864 104.264 571.456 103.496 569.792 103.496C567.04 103.496 565.344 105.8 565.344 108.744C565.344 111.688 567.04 113.992 569.792 113.992C571.456 113.992 573.024 113.192 573.504 111.304H577.696ZM597.886 107.656C597.886 113.224 595.358 117.544 588.734 117.544C581.982 117.544 579.294 113.48 579.294 107.656V94.152H583.998V107.656C583.998 111.048 585.374 113.512 588.734 113.512C591.934 113.512 593.182 111.048 593.182 107.656V94.152H597.886V107.656ZM604.313 109.544C604.505 112.136 606.393 113.64 608.953 113.64C611.385 113.64 612.793 112.68 612.793 110.728C612.793 108.552 610.905 108.008 607.993 107.112C604.217 105.992 600.473 104.648 600.473 100.008C600.441 95.656 604.601 93.608 608.793 93.608C613.369 93.608 616.793 95.688 617.305 100.936H612.601C612.185 98.568 610.969 97.48 608.665 97.48C606.681 97.48 605.113 98.28 605.113 100.168C605.113 101.928 606.841 102.76 609.753 103.624C613.657 104.776 617.433 105.896 617.433 110.76C617.433 115.432 613.241 117.544 608.953 117.544C603.961 117.544 599.993 115.016 599.481 109.544H604.313ZM626.671 94.152C634.639 94.152 638.991 98.376 638.991 105.32C638.991 112.52 634.639 117 626.703 117H619.503V94.152H626.671ZM624.207 113H626.671C631.279 113 634.191 110.472 634.191 105.32C634.191 100.488 631.279 98.152 626.703 98.152H624.207V113ZM661.775 109.704C660.559 114.504 656.591 117.416 650.959 117.416C644.207 117.416 639.375 112.712 639.375 105.608C639.375 98.568 644.239 93.736 651.023 93.736C656.751 93.736 660.367 96.616 661.807 101.448H657.167C655.983 98.824 653.871 97.736 651.023 97.736C646.991 97.736 644.079 101 644.079 105.608C644.079 110.12 647.023 113.416 651.023 113.416C654.351 113.416 656.207 112.072 657.135 109.704H661.775Z" fill="#0151AF"/>
<rect x="228.641" y="169.463" width="544.975" height="98.8508" fill="white" stroke="#0151AF" stroke-width="1.5"/>
<path d="M249.855 227.567V210.431H255.999C259.911 210.431 261.807 212.615 261.807 215.303C261.807 217.751 260.151 219.311 258.231 219.767C259.887 220.199 260.391 221.495 261.039 223.655C261.519 225.239 261.879 226.199 262.527 227.327V227.567H260.103C259.527 226.391 259.095 224.807 258.591 223.463C257.991 221.855 257.295 220.559 255.231 220.559H252.135V227.567H249.855ZM252.135 218.639H255.903C258.327 218.639 259.503 217.319 259.503 215.303C259.503 213.767 258.663 212.351 255.759 212.351H252.135V218.639ZM275.275 223.871C274.579 226.511 272.491 227.855 269.731 227.855C266.059 227.855 263.635 225.191 263.635 221.303C263.635 217.559 266.179 214.871 269.683 214.871C274.051 214.871 275.419 218.375 275.467 221.567V221.951H265.723C265.891 224.543 267.475 226.055 269.683 226.055C271.339 226.055 272.731 225.407 273.163 223.871H275.275ZM265.747 220.223H273.283C273.091 218.063 271.891 216.647 269.683 216.647C267.451 216.647 266.035 218.087 265.747 220.223ZM278.744 213.767C278.744 212.039 279.68 210.431 281.888 210.431H283.232V212.255H282.44C281.504 212.255 280.856 212.567 280.856 213.863V215.159H282.944V216.935H280.856V227.567H278.744V216.935H277.04V215.159H278.744V213.767ZM295.431 223.871C294.735 226.511 292.647 227.855 289.887 227.855C286.215 227.855 283.791 225.191 283.791 221.303C283.791 217.559 286.335 214.871 289.839 214.871C294.207 214.871 295.575 218.375 295.623 221.567V221.951H285.879C286.047 224.543 287.631 226.055 289.839 226.055C291.495 226.055 292.887 225.407 293.319 223.871H295.431ZM285.903 220.223H293.439C293.247 218.063 292.047 216.647 289.839 216.647C287.607 216.647 286.191 218.087 285.903 220.223ZM300.173 215.159V217.655C300.797 215.831 301.997 215.111 303.869 215.111V217.175C303.773 217.175 303.389 217.199 303.077 217.247C301.637 217.463 300.173 218.111 300.173 221.711V227.567H298.013V215.159H300.173ZM316.713 223.871C316.017 226.511 313.929 227.855 311.169 227.855C307.497 227.855 305.073 225.191 305.073 221.303C305.073 217.559 307.617 214.871 311.121 214.871C315.489 214.871 316.857 218.375 316.905 221.567V221.951H307.161C307.329 224.543 308.913 226.055 311.121 226.055C312.777 226.055 314.169 225.407 314.601 223.871H316.713ZM307.185 220.223H314.721C314.529 218.063 313.329 216.647 311.121 216.647C308.889 216.647 307.473 218.087 307.185 220.223ZM319.294 227.567V215.159H321.454V217.487C322.102 216.071 323.254 214.871 325.174 214.871C328.438 214.871 329.662 217.007 329.662 219.527V227.567H327.502V219.743C327.502 217.559 326.566 216.695 324.886 216.695C323.062 216.695 321.454 218.231 321.454 221.471V227.567H319.294ZM343.718 223.775C343.022 226.367 341.222 227.855 338.222 227.855C334.358 227.855 331.862 225.119 331.862 221.375C331.862 217.631 334.358 214.871 338.222 214.871C341.39 214.871 343.094 216.623 343.622 218.879H341.462C341.006 217.751 340.166 216.647 338.15 216.647C335.63 216.647 334.022 218.711 334.022 221.375C334.022 224.015 335.63 226.055 338.15 226.055C339.95 226.055 340.982 225.239 341.534 223.775H343.718ZM357.049 223.871C356.353 226.511 354.265 227.855 351.505 227.855C347.833 227.855 345.409 225.191 345.409 221.303C345.409 217.559 347.953 214.871 351.457 214.871C355.825 214.871 357.193 218.375 357.241 221.567V221.951H347.497C347.665 224.543 349.249 226.055 351.457 226.055C353.113 226.055 354.505 225.407 354.937 223.871H357.049ZM347.521 220.223H355.057C354.865 218.063 353.665 216.647 351.457 216.647C349.225 216.647 347.809 218.087 347.521 220.223Z" fill="#0151AF"/>
<path d="M580.736 218.656C580.736 224.224 578.208 228.544 571.584 228.544C564.832 228.544 562.144 224.48 562.144 218.656V205.152H566.848V218.656C566.848 222.048 568.224 224.512 571.584 224.512C574.784 224.512 576.032 222.048 576.032 218.656V205.152H580.736V218.656ZM587.163 220.544C587.355 223.136 589.243 224.64 591.803 224.64C594.235 224.64 595.643 223.68 595.643 221.728C595.643 219.552 593.755 219.008 590.843 218.112C587.067 216.992 583.323 215.648 583.323 211.008C583.291 206.656 587.451 204.608 591.643 204.608C596.219 204.608 599.643 206.688 600.155 211.936H595.451C595.035 209.568 593.819 208.48 591.515 208.48C589.531 208.48 587.963 209.28 587.963 211.168C587.963 212.928 589.691 213.76 592.603 214.624C596.507 215.776 600.283 216.896 600.283 221.76C600.283 226.432 596.091 228.544 591.803 228.544C586.811 228.544 582.843 226.016 582.331 220.544H587.163ZM609.521 205.152C617.489 205.152 621.841 209.376 621.841 216.32C621.841 223.52 617.489 228 609.553 228H602.353V205.152H609.521ZM607.057 224H609.521C614.129 224 617.041 221.472 617.041 216.32C617.041 211.488 614.129 209.152 609.553 209.152H607.057V224ZM644.625 220.704C643.409 225.504 639.441 228.416 633.809 228.416C627.057 228.416 622.225 223.712 622.225 216.608C622.225 209.568 627.089 204.736 633.873 204.736C639.601 204.736 643.217 207.616 644.657 212.448H640.017C638.833 209.824 636.721 208.736 633.873 208.736C629.841 208.736 626.929 212 626.929 216.608C626.929 221.12 629.873 224.416 633.873 224.416C637.201 224.416 639.057 223.072 639.985 220.704H644.625Z" fill="#0151AF"/>
<path d="M228.641 280.176H773.616V368.323C773.616 374.235 768.824 379.027 762.913 379.027H239.344C233.433 379.027 228.641 374.235 228.641 368.323V280.176Z" fill="white" stroke="#0151AF" stroke-width="1.5"/>
<path d="M248.415 323.351V321.431H261.207V323.351H255.951V338.567H253.671V323.351H248.415ZM260.582 329.903C260.846 328.103 262.358 325.847 265.598 325.847C270.158 325.847 270.59 328.799 270.59 330.719V336.047C270.59 336.983 270.686 337.967 270.782 338.567H268.478C268.43 337.967 268.43 337.463 268.43 336.767V336.287H268.406C268.118 337.247 267.086 338.855 264.326 338.855C261.35 338.855 259.982 336.959 259.982 335.183C259.982 331.679 264.398 331.559 266.27 331.223C267.902 330.935 268.43 330.479 268.43 329.447C268.43 328.415 267.446 327.671 265.67 327.671C264.158 327.671 263.03 328.559 262.742 329.903H260.582ZM262.118 335.183C262.118 336.359 263.198 337.103 264.71 337.103C266.606 337.103 268.478 335.879 268.478 332.807L268.454 331.079C268.214 331.895 267.686 332.615 264.998 333.095C263.198 333.407 262.118 333.935 262.118 335.183ZM275.774 326.159V328.655C276.398 326.831 277.598 326.111 279.47 326.111V328.175C279.374 328.175 278.99 328.199 278.678 328.247C277.238 328.463 275.774 329.111 275.774 332.711V338.567H273.614V326.159H275.774ZM290.447 326.159H292.607V337.607C292.607 341.279 289.919 343.319 286.847 343.319C283.775 343.319 281.375 341.783 281.111 339.095H283.271C283.511 340.871 284.879 341.495 286.847 341.495C288.815 341.495 290.447 340.415 290.447 337.607V336.119H290.423C289.895 337.655 288.671 338.855 286.247 338.855C282.695 338.855 280.487 336.047 280.487 332.327C280.487 328.631 282.695 325.871 286.247 325.871C288.671 325.871 289.967 327.239 290.423 328.463H290.447V326.159ZM282.647 332.327C282.647 334.775 283.871 337.007 286.583 337.007C289.631 337.007 290.519 334.295 290.519 332.327C290.519 330.383 289.247 327.695 286.583 327.695C283.943 327.695 282.647 329.903 282.647 332.327ZM306.541 334.871C305.845 337.511 303.757 338.855 300.997 338.855C297.325 338.855 294.901 336.191 294.901 332.303C294.901 328.559 297.445 325.871 300.949 325.871C305.317 325.871 306.685 329.375 306.733 332.567V332.951H296.989C297.157 335.543 298.741 337.055 300.949 337.055C302.605 337.055 303.997 336.407 304.429 334.871H306.541ZM297.013 331.223H304.549C304.357 329.063 303.157 327.647 300.949 327.647C298.717 327.647 297.301 329.087 297.013 331.223ZM311.738 335.087C311.738 336.191 312.362 336.791 313.322 336.791H314.186V338.567H313.106C310.706 338.567 309.626 337.151 309.626 335.231V327.935H307.778V326.159H309.626V323.255L311.738 322.295V326.159H314.114V327.935H311.738V335.087Z" fill="#0151AF"/>
<path d="M580.736 329.656C580.736 335.224 578.208 339.544 571.584 339.544C564.832 339.544 562.144 335.48 562.144 329.656V316.152H566.848V329.656C566.848 333.048 568.224 335.512 571.584 335.512C574.784 335.512 576.032 333.048 576.032 329.656V316.152H580.736V329.656ZM587.163 331.544C587.355 334.136 589.243 335.64 591.803 335.64C594.235 335.64 595.643 334.68 595.643 332.728C595.643 330.552 593.755 330.008 590.843 329.112C587.067 327.992 583.323 326.648 583.323 322.008C583.291 317.656 587.451 315.608 591.643 315.608C596.219 315.608 599.643 317.688 600.155 322.936H595.451C595.035 320.568 593.819 319.48 591.515 319.48C589.531 319.48 587.963 320.28 587.963 322.168C587.963 323.928 589.691 324.76 592.603 325.624C596.507 326.776 600.283 327.896 600.283 332.76C600.283 337.432 596.091 339.544 591.803 339.544C586.811 339.544 582.843 337.016 582.331 331.544H587.163ZM609.521 316.152C617.489 316.152 621.841 320.376 621.841 327.32C621.841 334.52 617.489 339 609.553 339H602.353V316.152H609.521ZM607.057 335H609.521C614.129 335 617.041 332.472 617.041 327.32C617.041 322.488 614.129 320.152 609.553 320.152H607.057V335Z" fill="#0151AF"/>
<path d="M190.53 206.53C190.823 206.237 190.823 205.763 190.53 205.47L185.757 200.697C185.464 200.404 184.99 200.404 184.697 200.697C184.404 200.99 184.404 201.464 184.697 201.757L188.939 206L184.697 210.243C184.404 210.536 184.404 211.01 184.697 211.303C184.99 211.596 185.464 211.596 185.757 211.303L190.53 206.53ZM186.415 112C188.624 112 190.415 110.209 190.415 108C190.415 105.791 188.624 104 186.415 104C184.205 104 182.415 105.791 182.415 108C182.415 110.209 184.205 112 186.415 112ZM169 108L169 107.25L168.25 107.25L168.25 108L169 108ZM169 206L168.25 206L168.25 206.75L169 206.75L169 206ZM169 108.75L186.415 108.75L186.415 107.25L169 107.25L169 108.75ZM190 205.25C186.183 205.25 180.966 205.25 176.65 205.25C174.484 205.25 172.603 205.25 171.212 205.25C171.202 205.25 171.191 205.25 171.18 205.25C171.17 205.25 171.159 205.25 171.148 205.25C171.138 205.25 171.127 205.25 171.117 205.25C171.106 205.25 171.096 205.25 171.085 205.25C171.075 205.25 171.064 205.25 171.054 205.25C171.043 205.25 171.033 205.25 171.023 205.25C171.012 205.25 171.002 205.25 170.992 205.25C170.981 205.25 170.971 205.25 170.961 205.25C170.951 205.25 170.941 205.25 170.93 205.25C170.92 205.25 170.91 205.25 170.9 205.25C170.89 205.25 170.88 205.25 170.87 205.25C170.86 205.25 170.85 205.25 170.84 205.25C170.83 205.25 170.82 205.25 170.81 205.25C170.801 205.25 170.791 205.25 170.781 205.25C170.771 205.25 170.761 205.25 170.752 205.25C170.742 205.25 170.732 205.25 170.723 205.25C170.636 205.25 170.58 205.25 170.498 205.25C170.489 205.25 170.48 205.25 170.47 205.25C170.461 205.25 170.453 205.25 170.444 205.25C170.435 205.25 170.426 205.25 170.417 205.25C170.408 205.25 170.399 205.25 170.39 205.25C170.382 205.25 170.373 205.25 170.364 205.25C170.355 205.25 170.347 205.25 170.338 205.25C170.329 205.25 170.321 205.25 170.312 205.25C170.304 205.25 170.295 205.25 170.287 205.25C170.278 205.25 170.27 205.25 170.261 205.25C170.253 205.25 170.244 205.25 170.236 205.25C170.228 205.25 170.219 205.25 170.211 205.25C170.203 205.25 170.195 205.25 170.186 205.25C170.178 205.25 170.17 205.25 170.162 205.25C170.154 205.25 170.146 205.25 170.138 205.25C170.13 205.25 170.122 205.25 170.114 205.25C170.106 205.25 170.098 205.25 170.09 205.25C170.082 205.25 170.074 205.25 170.066 205.25C170.059 205.25 170.051 205.25 170.043 205.25C170.035 205.25 170.028 205.25 170.02 205.25C170.012 205.25 170.005 205.25 169.997 205.25C169.99 205.25 169.982 205.25 169.975 205.25C169.967 205.25 169.96 205.25 169.952 205.25C169.945 205.25 169.937 205.25 169.93 205.25C169.923 205.25 169.915 205.25 169.908 205.25C169.901 205.25 169.894 205.25 169.886 205.25C169.879 205.25 169.872 205.25 169.865 205.25C169.858 205.25 169.851 205.25 169.844 205.25C169.837 205.25 169.83 205.25 169.823 205.25C169.816 205.25 169.809 205.25 169.802 205.25C169.795 205.25 169.789 205.25 169.782 205.25C169.775 205.25 169.768 205.25 169.762 205.25C169.755 205.25 169.748 205.25 169.742 205.25C169.735 205.25 169.728 205.25 169.722 205.25C169.715 205.25 169.709 205.25 169.702 205.25C169.696 205.25 169.689 205.25 169.683 205.25C169.677 205.25 169.67 205.25 169.664 205.25C169.658 205.25 169.652 205.25 169.645 205.25C169.639 205.25 169.633 205.25 169.627 205.25C169.621 205.25 169.615 205.25 169.609 205.25C169.603 205.25 169.597 205.25 169.591 205.25C169.585 205.25 169.579 205.25 169.573 205.25C169.567 205.25 169.561 205.25 169.555 205.25C169.55 205.25 169.544 205.25 169.538 205.25C169.532 205.25 169.527 205.25 169.521 205.25C169.516 205.25 169.51 205.25 169.504 205.25C169.499 205.25 169.493 205.25 169.488 205.25C169.482 205.25 169.477 205.25 169.472 205.25C169.466 205.25 169.461 205.25 169.456 205.25C169.45 205.25 169.445 205.25 169.44 205.25C169.435 205.25 169.43 205.25 169.425 205.25C169.42 205.25 169.414 205.25 169.409 205.25C169.404 205.25 169.399 205.25 169.395 205.25C169.39 205.25 169.385 205.25 169.38 205.25C169.375 205.25 169.37 205.25 169.365 205.25C169.361 205.25 169.356 205.25 169.351 205.25C169.347 205.25 169.342 205.25 169.337 205.25C169.333 205.25 169.328 205.25 169.324 205.25C169.319 205.25 169.315 205.25 169.311 205.25C169.306 205.25 169.302 205.25 169.297 205.25C169.293 205.25 169.289 205.25 169.285 205.25C169.28 205.25 169.276 205.25 169.272 205.25C169.268 205.25 169.264 205.25 169.26 205.25C169.256 205.25 169.252 205.25 169.248 205.25C169.244 205.25 169.24 205.25 169.236 205.25C169.232 205.25 169.229 205.25 169.225 205.25C169.221 205.25 169.217 205.25 169.214 205.25C169.21 205.25 169.206 205.25 169.203 205.25C169.199 205.25 169.196 205.25 169.192 205.25C169.189 205.25 169.185 205.25 169.182 205.25C169.178 205.25 169.175 205.25 169.172 205.25C169.168 205.25 169.165 205.25 169.162 205.25C169.159 205.25 169.155 205.25 169.152 205.25C169.149 205.25 169.146 205.25 169.143 205.25C169.14 205.25 169.137 205.25 169.134 205.25C169.131 205.25 169.128 205.25 169.125 205.25C169.123 205.25 169.12 205.25 169.117 205.25C169.114 205.25 169.112 205.25 169.109 205.25C169.106 205.25 169.104 205.25 169.101 205.25C169.099 205.25 169.096 205.25 169.094 205.25C169.091 205.25 169.089 205.25 169.086 205.25C169.084 205.25 169.082 205.25 169.079 205.25C169.077 205.25 169.075 205.25 169.073 205.25C169.071 205.25 169.068 205.25 169.066 205.25C169.064 205.25 169.062 205.25 169.06 205.25C169.058 205.25 169.056 205.25 169.054 205.25C169.052 205.25 169.051 205.25 169.049 205.25C169.047 205.25 169.045 205.25 169.044 205.25C169.042 205.25 169.04 205.25 169.039 205.25C169.037 205.25 169.036 205.25 169.034 205.25C169.033 205.25 169.031 205.25 169.03 205.25C169.028 205.25 169.027 205.25 169.026 205.25C169.024 205.25 169.023 205.25 169.022 205.25C169.021 205.25 169.019 205.25 169.018 205.25C169.017 205.25 169.016 205.25 169.015 205.25C169.014 205.25 169.013 205.25 169.012 205.25C169.011 205.25 169.011 205.25 169.01 205.25C168.966 205.25 169.045 205.25 169.002 205.25C169.002 205.25 169.002 205.25 169.001 205.25C169.001 205.25 169.001 205.25 169.001 205.25C169 205.25 169 205.25 169 205.25C169 205.25 169 205.25 169 206C169 206.75 169 206.75 169 206.75C169 206.75 169 206.75 169.001 206.75C169.001 206.75 169.001 206.75 169.001 206.75C169.002 206.75 169.002 206.75 169.002 206.75C169.045 206.75 168.966 206.75 169.01 206.75C169.011 206.75 169.011 206.75 169.012 206.75C169.013 206.75 169.014 206.75 169.015 206.75C169.016 206.75 169.017 206.75 169.018 206.75C169.019 206.75 169.021 206.75 169.022 206.75C169.023 206.75 169.024 206.75 169.026 206.75C169.027 206.75 169.028 206.75 169.03 206.75C169.031 206.75 169.033 206.75 169.034 206.75C169.036 206.75 169.037 206.75 169.039 206.75C169.04 206.75 169.042 206.75 169.044 206.75C169.045 206.75 169.047 206.75 169.049 206.75C169.051 206.75 169.052 206.75 169.054 206.75C169.056 206.75 169.058 206.75 169.06 206.75C169.062 206.75 169.064 206.75 169.066 206.75C169.068 206.75 169.071 206.75 169.073 206.75C169.075 206.75 169.077 206.75 169.079 206.75C169.082 206.75 169.084 206.75 169.086 206.75C169.089 206.75 169.091 206.75 169.094 206.75C169.096 206.75 169.099 206.75 169.101 206.75C169.104 206.75 169.106 206.75 169.109 206.75C169.112 206.75 169.114 206.75 169.117 206.75C169.12 206.75 169.123 206.75 169.125 206.75C169.128 206.75 169.131 206.75 169.134 206.75C169.137 206.75 169.14 206.75 169.143 206.75C169.146 206.75 169.149 206.75 169.152 206.75C169.155 206.75 169.159 206.75 169.162 206.75C169.165 206.75 169.168 206.75 169.172 206.75C169.175 206.75 169.178 206.75 169.182 206.75C169.185 206.75 169.189 206.75 169.192 206.75C169.196 206.75 169.199 206.75 169.203 206.75C169.206 206.75 169.21 206.75 169.214 206.75C169.217 206.75 169.221 206.75 169.225 206.75C169.229 206.75 169.232 206.75 169.236 206.75C169.24 206.75 169.244 206.75 169.248 206.75C169.252 206.75 169.256 206.75 169.26 206.75C169.264 206.75 169.268 206.75 169.272 206.75C169.276 206.75 169.28 206.75 169.285 206.75C169.289 206.75 169.293 206.75 169.297 206.75C169.302 206.75 169.306 206.75 169.311 206.75C169.315 206.75 169.319 206.75 169.324 206.75C169.328 206.75 169.333 206.75 169.337 206.75C169.342 206.75 169.347 206.75 169.351 206.75C169.356 206.75 169.361 206.75 169.365 206.75C169.37 206.75 169.375 206.75 169.38 206.75C169.385 206.75 169.39 206.75 169.395 206.75C169.399 206.75 169.404 206.75 169.409 206.75C169.414 206.75 169.42 206.75 169.425 206.75C169.43 206.75 169.435 206.75 169.44 206.75C169.445 206.75 169.45 206.75 169.456 206.75C169.461 206.75 169.466 206.75 169.472 206.75C169.477 206.75 169.482 206.75 169.488 206.75C169.493 206.75 169.499 206.75 169.504 206.75C169.51 206.75 169.516 206.75 169.521 206.75C169.527 206.75 169.532 206.75 169.538 206.75C169.544 206.75 169.55 206.75 169.555 206.75C169.561 206.75 169.567 206.75 169.573 206.75C169.579 206.75 169.585 206.75 169.591 206.75C169.597 206.75 169.603 206.75 169.609 206.75C169.615 206.75 169.621 206.75 169.627 206.75C169.633 206.75 169.639 206.75 169.645 206.75C169.652 206.75 169.658 206.75 169.664 206.75C169.67 206.75 169.677 206.75 169.683 206.75C169.689 206.75 169.696 206.75 169.702 206.75C169.709 206.75 169.715 206.75 169.722 206.75C169.728 206.75 169.735 206.75 169.742 206.75C169.748 206.75 169.755 206.75 169.762 206.75C169.768 206.75 169.775 206.75 169.782 206.75C169.789 206.75 169.795 206.75 169.802 206.75C169.809 206.75 169.816 206.75 169.823 206.75C169.83 206.75 169.837 206.75 169.844 206.75C169.851 206.75 169.858 206.75 169.865 206.75C169.872 206.75 169.879 206.75 169.886 206.75C169.894 206.75 169.901 206.75 169.908 206.75C169.915 206.75 169.923 206.75 169.93 206.75C169.937 206.75 169.945 206.75 169.952 206.75C169.96 206.75 169.967 206.75 169.975 206.75C169.982 206.75 169.99 206.75 169.997 206.75C170.005 206.75 170.012 206.75 170.02 206.75C170.028 206.75 170.035 206.75 170.043 206.75C170.051 206.75 170.059 206.75 170.066 206.75C170.074 206.75 170.082 206.75 170.09 206.75C170.098 206.75 170.106 206.75 170.114 206.75C170.122 206.75 170.13 206.75 170.138 206.75C170.146 206.75 170.154 206.75 170.162 206.75C170.17 206.75 170.178 206.75 170.186 206.75C170.195 206.75 170.203 206.75 170.211 206.75C170.219 206.75 170.228 206.75 170.236 206.75C170.244 206.75 170.253 206.75 170.261 206.75C170.27 206.75 170.278 206.75 170.287 206.75C170.295 206.75 170.304 206.75 170.312 206.75C170.321 206.75 170.329 206.75 170.338 206.75C170.347 206.75 170.355 206.75 170.364 206.75C170.373 206.75 170.382 206.75 170.39 206.75C170.399 206.75 170.408 206.75 170.417 206.75C170.426 206.75 170.435 206.75 170.444 206.75C170.453 206.75 170.461 206.75 170.47 206.75C170.48 206.75 170.489 206.75 170.498 206.75C170.58 206.75 170.636 206.75 170.723 206.75C170.732 206.75 170.742 206.75 170.752 206.75C170.761 206.75 170.771 206.75 170.781 206.75C170.791 206.75 170.801 206.75 170.81 206.75C170.82 206.75 170.83 206.75 170.84 206.75C170.85 206.75 170.86 206.75 170.87 206.75C170.88 206.75 170.89 206.75 170.9 206.75C170.91 206.75 170.92 206.75 170.93 206.75C170.941 206.75 170.951 206.75 170.961 206.75C170.971 206.75 170.981 206.75 170.992 206.75C171.002 206.75 171.012 206.75 171.023 206.75C171.033 206.75 171.043 206.75 171.054 206.75C171.064 206.75 171.075 206.75 171.085 206.75C171.096 206.75 171.106 206.75 171.117 206.75C171.127 206.75 171.138 206.75 171.148 206.75C171.159 206.75 171.17 206.75 171.18 206.75C171.191 206.75 171.202 206.75 171.212 206.75C171.223 206.75 171.234 206.75 171.245 206.75C171.255 206.75 171.266 206.75 171.277 206.75C171.288 206.75 171.299 206.75 171.31 206.75C171.321 206.75 171.332 206.75 171.343 206.75C171.354 206.75 171.365 206.75 171.376 206.75C171.387 206.75 171.398 206.75 171.409 206.75C171.42 206.75 171.432 206.75 171.443 206.75C171.454 206.75 171.465 206.75 171.476 206.75C171.488 206.75 171.499 206.75 171.51 206.75C171.522 206.75 171.533 206.75 171.544 206.75C171.556 206.75 171.567 206.75 171.579 206.75C171.59 206.75 171.601 206.75 171.613 206.75C171.624 206.75 171.636 206.75 171.648 206.75C171.659 206.75 171.671 206.75 171.682 206.75C171.694 206.75 171.706 206.75 171.717 206.75C171.729 206.75 171.741 206.75 171.753 206.75C171.764 206.75 171.776 206.75 171.788 206.75C171.8 206.75 171.812 206.75 171.823 206.75C171.835 206.75 171.847 206.75 171.859 206.75C171.871 206.75 171.883 206.75 171.895 206.75C171.907 206.75 171.919 206.75 171.931 206.75C171.943 206.75 171.955 206.75 171.967 206.75C171.98 206.75 171.992 206.75 172.004 206.75C172.016 206.75 172.028 206.75 172.04 206.75C172.053 206.75 172.065 206.75 172.077 206.75C172.09 206.75 172.102 206.75 172.114 206.75C172.127 206.75 172.139 206.75 172.151 206.75C172.164 206.75 172.176 206.75 172.189 206.75C172.201 206.75 172.214 206.75 172.226 206.75C172.239 206.75 172.251 206.75 172.264 206.75C172.276 206.75 172.289 206.75 172.302 206.75C172.314 206.75 172.327 206.75 172.34 206.75C172.465 206.75 172.52 206.75 172.65 206.75C172.663 206.75 172.676 206.75 172.689 206.75C172.702 206.75 172.716 206.75 172.729 206.75C172.742 206.75 172.755 206.75 172.769 206.75C172.782 206.75 172.795 206.75 172.809 206.75C172.822 206.75 172.835 206.75 172.849 206.75C172.862 206.75 172.876 206.75 172.889 206.75C172.902 206.75 172.916 206.75 172.929 206.75C172.943 206.75 172.957 206.75 172.97 206.75C172.984 206.75 172.997 206.75 173.011 206.75C173.024 206.75 173.038 206.75 173.052 206.75C173.065 206.75 173.079 206.75 173.093 206.75C173.107 206.75 173.12 206.75 173.134 206.75C173.148 206.75 173.162 206.75 173.175 206.75C173.189 206.75 173.203 206.75 173.217 206.75C173.231 206.75 173.245 206.75 173.259 206.75C173.273 206.75 173.287 206.75 173.3 206.75C173.314 206.75 173.328 206.75 173.342 206.75C173.356 206.75 173.371 206.75 173.385 206.75C173.399 206.75 173.413 206.75 173.427 206.75C173.441 206.75 173.455 206.75 173.469 206.75C173.483 206.75 173.498 206.75 173.512 206.75C173.526 206.75 173.54 206.75 173.555 206.75C173.569 206.75 173.583 206.75 173.597 206.75C173.612 206.75 173.626 206.75 173.64 206.75C173.655 206.75 173.669 206.75 173.684 206.75C173.698 206.75 173.712 206.75 173.727 206.75C173.741 206.75 173.756 206.75 173.77 206.75C173.785 206.75 173.799 206.75 173.814 206.75C173.828 206.75 173.843 206.75 173.857 206.75C173.872 206.75 173.887 206.75 173.901 206.75C173.916 206.75 173.931 206.75 173.945 206.75C173.96 206.75 173.975 206.75 173.989 206.75C174.004 206.75 174.019 206.75 174.034 206.75C174.048 206.75 174.063 206.75 174.078 206.75C174.093 206.75 174.108 206.75 174.122 206.75C174.137 206.75 174.152 206.75 174.167 206.75C174.182 206.75 174.197 206.75 174.212 206.75C174.227 206.75 174.242 206.75 174.257 206.75C174.272 206.75 174.287 206.75 174.302 206.75C174.317 206.75 174.332 206.75 174.347 206.75C174.362 206.75 174.377 206.75 174.392 206.75C174.407 206.75 174.423 206.75 174.438 206.75C174.453 206.75 174.468 206.75 174.483 206.75C174.498 206.75 174.514 206.75 174.529 206.75C174.544 206.75 174.559 206.75 174.575 206.75C174.59 206.75 174.605 206.75 174.621 206.75C174.636 206.75 174.651 206.75 174.667 206.75C174.682 206.75 174.697 206.75 174.713 206.75C174.728 206.75 174.744 206.75 174.759 206.75C174.775 206.75 174.79 206.75 174.806 206.75C174.821 206.75 174.837 206.75 174.852 206.75C174.868 206.75 174.883 206.75 174.899 206.75C174.914 206.75 174.93 206.75 174.945 206.75C174.961 206.75 174.977 206.75 174.992 206.75C175.008 206.75 175.024 206.75 175.039 206.75C175.055 206.75 175.071 206.75 175.086 206.75C175.102 206.75 175.118 206.75 175.134 206.75C175.149 206.75 175.165 206.75 175.181 206.75C175.197 206.75 175.213 206.75 175.228 206.75C175.244 206.75 175.26 206.75 175.276 206.75C175.384 206.75 175.359 206.75 175.467 206.75C175.483 206.75 175.499 206.75 175.515 206.75C175.531 206.75 175.548 206.75 175.564 206.75C175.58 206.75 175.596 206.75 175.612 206.75C175.628 206.75 175.644 206.75 175.66 206.75C175.677 206.75 175.693 206.75 175.709 206.75C175.725 206.75 175.741 206.75 175.758 206.75C175.774 206.75 175.79 206.75 175.806 206.75C175.823 206.75 175.839 206.75 175.855 206.75C175.871 206.75 175.888 206.75 175.904 206.75C175.92 206.75 175.937 206.75 175.953 206.75C175.969 206.75 175.986 206.75 176.002 206.75C176.019 206.75 176.035 206.75 176.051 206.75C176.068 206.75 176.084 206.75 176.101 206.75C176.117 206.75 176.134 206.75 176.15 206.75C176.167 206.75 176.183 206.75 176.2 206.75C176.216 206.75 176.233 206.75 176.249 206.75C176.266 206.75 176.283 206.75 176.299 206.75C176.316 206.75 176.332 206.75 176.349 206.75C176.366 206.75 176.382 206.75 176.399 206.75C176.415 206.75 176.432 206.75 176.449 206.75C176.465 206.75 176.482 206.75 176.499 206.75C176.516 206.75 176.532 206.75 176.549 206.75C176.566 206.75 176.583 206.75 176.599 206.75C176.616 206.75 176.633 206.75 176.65 206.75C180.966 206.75 186.183 206.75 190 206.75L190 205.25ZM169.75 206L169.75 108L168.25 108L168.25 206L169.75 206Z" fill="#0151AF"/>
<path d="M190.53 332.53C190.823 332.237 190.823 331.763 190.53 331.47L185.757 326.697C185.464 326.404 184.99 326.404 184.697 326.697C184.404 326.99 184.404 327.464 184.697 327.757L188.939 332L184.697 336.243C184.404 336.536 184.404 337.01 184.697 337.303C184.99 337.596 185.464 337.596 185.757 337.303L190.53 332.53ZM186.415 239C188.624 239 190.415 237.209 190.415 235C190.415 232.791 188.624 231 186.415 231C184.205 231 182.415 232.791 182.415 235C182.415 237.209 184.205 239 186.415 239ZM169 235L169 234.25L168.25 234.25L168.25 235L169 235ZM169 332L168.25 332L168.25 332.75L169 332.75L169 332ZM169 235.75L186.415 235.75L186.415 234.25L169 234.25L169 235.75ZM190 331.25C186.196 331.25 180.953 331.25 176.65 331.25C176.633 331.25 176.616 331.25 176.599 331.25C176.583 331.25 176.566 331.25 176.549 331.25C176.532 331.25 176.516 331.25 176.499 331.25C176.482 331.25 176.465 331.25 176.449 331.25C176.432 331.25 176.415 331.25 176.399 331.25C176.382 331.25 176.366 331.25 176.349 331.25C176.332 331.25 176.316 331.25 176.299 331.25C176.283 331.25 176.266 331.25 176.249 331.25C176.233 331.25 176.216 331.25 176.2 331.25C176.183 331.25 176.167 331.25 176.15 331.25C176.134 331.25 176.117 331.25 176.101 331.25C176.084 331.25 176.068 331.25 176.051 331.25C176.035 331.25 176.019 331.25 176.002 331.25C175.986 331.25 175.969 331.25 175.953 331.25C175.937 331.25 175.92 331.25 175.904 331.25C175.888 331.25 175.871 331.25 175.855 331.25C175.839 331.25 175.823 331.25 175.806 331.25C175.79 331.25 175.774 331.25 175.758 331.25C175.741 331.25 175.725 331.25 175.709 331.25C175.693 331.25 175.677 331.25 175.66 331.25C175.644 331.25 175.628 331.25 175.612 331.25C175.596 331.25 175.58 331.25 175.564 331.25C175.548 331.25 175.531 331.25 175.515 331.25C175.499 331.25 175.483 331.25 175.467 331.25C175.451 331.25 175.435 331.25 175.419 331.25C175.403 331.25 175.387 331.25 175.371 331.25C175.355 331.25 175.34 331.25 175.324 331.25C175.308 331.25 175.292 331.25 175.276 331.25C175.26 331.25 175.244 331.25 175.228 331.25C175.213 331.25 175.197 331.25 175.181 331.25C175.165 331.25 175.149 331.25 175.134 331.25C175.118 331.25 175.102 331.25 175.086 331.25C175.071 331.25 175.055 331.25 175.039 331.25C175.024 331.25 175.008 331.25 174.992 331.25C174.977 331.25 174.961 331.25 174.945 331.25C174.93 331.25 174.914 331.25 174.899 331.25C174.883 331.25 174.868 331.25 174.852 331.25C174.837 331.25 174.821 331.25 174.806 331.25C174.79 331.25 174.775 331.25 174.759 331.25C174.744 331.25 174.728 331.25 174.713 331.25C174.697 331.25 174.682 331.25 174.667 331.25C174.651 331.25 174.636 331.25 174.621 331.25C174.605 331.25 174.59 331.25 174.575 331.25C174.559 331.25 174.544 331.25 174.529 331.25C174.514 331.25 174.498 331.25 174.483 331.25C174.468 331.25 174.453 331.25 174.438 331.25C174.423 331.25 174.407 331.25 174.392 331.25C174.377 331.25 174.362 331.25 174.347 331.25C174.332 331.25 174.317 331.25 174.302 331.25C174.287 331.25 174.272 331.25 174.257 331.25C174.242 331.25 174.227 331.25 174.212 331.25C174.197 331.25 174.182 331.25 174.167 331.25C174.152 331.25 174.137 331.25 174.122 331.25C174.108 331.25 174.093 331.25 174.078 331.25C174.063 331.25 174.048 331.25 174.034 331.25C174.019 331.25 174.004 331.25 173.989 331.25C173.975 331.25 173.96 331.25 173.945 331.25C173.931 331.25 173.916 331.25 173.901 331.25C173.887 331.25 173.872 331.25 173.857 331.25C173.843 331.25 173.828 331.25 173.814 331.25C173.799 331.25 173.785 331.25 173.77 331.25C173.756 331.25 173.741 331.25 173.727 331.25C173.712 331.25 173.698 331.25 173.684 331.25C173.669 331.25 173.655 331.25 173.64 331.25C173.626 331.25 173.612 331.25 173.597 331.25C173.583 331.25 173.569 331.25 173.555 331.25C173.54 331.25 173.526 331.25 173.512 331.25C173.498 331.25 173.483 331.25 173.469 331.25C173.455 331.25 173.441 331.25 173.427 331.25C173.413 331.25 173.399 331.25 173.385 331.25C173.371 331.25 173.356 331.25 173.342 331.25C173.328 331.25 173.314 331.25 173.3 331.25C173.287 331.25 173.273 331.25 173.259 331.25C173.245 331.25 173.231 331.25 173.217 331.25C173.203 331.25 173.189 331.25 173.175 331.25C173.162 331.25 173.148 331.25 173.134 331.25C173.12 331.25 173.107 331.25 173.093 331.25C173.079 331.25 173.065 331.25 173.052 331.25C173.038 331.25 173.024 331.25 173.011 331.25C172.997 331.25 172.984 331.25 172.97 331.25C172.957 331.25 172.943 331.25 172.929 331.25C172.916 331.25 172.902 331.25 172.889 331.25C172.876 331.25 172.862 331.25 172.849 331.25C172.835 331.25 172.822 331.25 172.809 331.25C172.795 331.25 172.782 331.25 172.769 331.25C172.755 331.25 172.742 331.25 172.729 331.25C172.716 331.25 172.702 331.25 172.689 331.25C172.676 331.25 172.663 331.25 172.65 331.25C172.637 331.25 172.623 331.25 172.61 331.25C172.597 331.25 172.584 331.25 172.571 331.25C172.558 331.25 172.545 331.25 172.532 331.25C172.519 331.25 172.506 331.25 172.493 331.25C172.48 331.25 172.468 331.25 172.455 331.25C172.442 331.25 172.429 331.25 172.416 331.25C172.403 331.25 172.391 331.25 172.378 331.25C172.365 331.25 172.352 331.25 172.34 331.25C172.327 331.25 172.314 331.25 172.302 331.25C172.289 331.25 172.276 331.25 172.264 331.25C172.251 331.25 172.239 331.25 172.226 331.25C172.214 331.25 172.201 331.25 172.189 331.25C172.176 331.25 172.164 331.25 172.151 331.25C172.139 331.25 172.127 331.25 172.114 331.25C172.102 331.25 172.09 331.25 172.077 331.25C172.065 331.25 172.053 331.25 172.04 331.25C172.028 331.25 172.016 331.25 172.004 331.25C171.992 331.25 171.98 331.25 171.967 331.25C171.955 331.25 171.943 331.25 171.931 331.25C171.919 331.25 171.907 331.25 171.895 331.25C171.883 331.25 171.871 331.25 171.859 331.25C171.847 331.25 171.835 331.25 171.823 331.25C171.812 331.25 171.8 331.25 171.788 331.25C171.776 331.25 171.764 331.25 171.753 331.25C171.741 331.25 171.729 331.25 171.717 331.25C171.706 331.25 171.694 331.25 171.682 331.25C171.671 331.25 171.659 331.25 171.648 331.25C171.636 331.25 171.624 331.25 171.613 331.25C171.601 331.25 171.59 331.25 171.579 331.25C171.567 331.25 171.556 331.25 171.544 331.25C171.533 331.25 171.522 331.25 171.51 331.25C171.499 331.25 171.488 331.25 171.476 331.25C171.465 331.25 171.454 331.25 171.443 331.25C171.432 331.25 171.42 331.25 171.409 331.25C171.398 331.25 171.387 331.25 171.376 331.25C171.365 331.25 171.354 331.25 171.343 331.25C171.332 331.25 171.321 331.25 171.31 331.25C171.299 331.25 171.288 331.25 171.277 331.25C171.266 331.25 171.255 331.25 171.245 331.25C171.234 331.25 171.223 331.25 171.212 331.25C170.571 331.25 169.926 331.25 169.591 331.25C169.585 331.25 169.579 331.25 169.573 331.25C169.567 331.25 169.561 331.25 169.555 331.25C169.55 331.25 169.544 331.25 169.538 331.25C169.532 331.25 169.527 331.25 169.521 331.25C169.516 331.25 169.51 331.25 169.504 331.25C169.499 331.25 169.493 331.25 169.488 331.25C169.482 331.25 169.477 331.25 169.472 331.25C169.466 331.25 169.461 331.25 169.456 331.25C169.45 331.25 169.445 331.25 169.44 331.25C169.435 331.25 169.43 331.25 169.425 331.25C169.42 331.25 169.414 331.25 169.409 331.25C169.404 331.25 169.399 331.25 169.395 331.25C169.39 331.25 169.385 331.25 169.38 331.25C169.375 331.25 169.37 331.25 169.365 331.25C169.361 331.25 169.356 331.25 169.351 331.25C169.347 331.25 169.342 331.25 169.337 331.25C169.333 331.25 169.328 331.25 169.324 331.25C169.319 331.25 169.315 331.25 169.311 331.25C169.306 331.25 169.302 331.25 169.297 331.25C169.293 331.25 169.289 331.25 169.285 331.25C169.28 331.25 169.276 331.25 169.272 331.25C169.268 331.25 169.264 331.25 169.26 331.25C169.256 331.25 169.252 331.25 169.248 331.25C169.244 331.25 169.24 331.25 169.236 331.25C169.232 331.25 169.229 331.25 169.225 331.25C169.221 331.25 169.217 331.25 169.214 331.25C169.21 331.25 169.206 331.25 169.203 331.25C169.199 331.25 169.196 331.25 169.192 331.25C169.189 331.25 169.185 331.25 169.182 331.25C169.178 331.25 169.175 331.25 169.172 331.25C169.168 331.25 169.165 331.25 169.162 331.25C169.159 331.25 169.155 331.25 169.152 331.25C169.149 331.25 169.146 331.25 169.143 331.25C169.14 331.25 169.137 331.25 169.134 331.25C169.131 331.25 169.128 331.25 169.125 331.25C169.123 331.25 169.12 331.25 169.117 331.25C169.114 331.25 169.112 331.25 169.109 331.25C169.106 331.25 169.104 331.25 169.101 331.25C169.099 331.25 169.096 331.25 169.094 331.25C169.091 331.25 169.089 331.25 169.086 331.25C169.084 331.25 169.082 331.25 169.079 331.25C169.077 331.25 169.075 331.25 169.073 331.25C169.071 331.25 169.068 331.25 169.066 331.25C169.064 331.25 169.062 331.25 169.06 331.25C169.058 331.25 169.056 331.25 169.054 331.25C169.052 331.25 169.051 331.25 169.049 331.25C169.047 331.25 169.045 331.25 169.044 331.25C169.042 331.25 169.04 331.25 169.039 331.25C169.037 331.25 169.036 331.25 169.034 331.25C169.033 331.25 169.031 331.25 169.03 331.25C169.028 331.25 169.027 331.25 169.026 331.25C169.024 331.25 169.023 331.25 169.022 331.25C169.021 331.25 169.019 331.25 169.018 331.25C169.017 331.25 169.016 331.25 169.015 331.25C169.014 331.25 169.013 331.25 169.012 331.25C169.011 331.25 169.011 331.25 169.01 331.25C169.009 331.25 169.008 331.25 169.007 331.25C169.007 331.25 169.006 331.25 169.005 331.25C169.005 331.25 169.004 331.25 169.004 331.25C169.003 331.25 169.003 331.25 169.002 331.25C169.002 331.25 169.002 331.25 169.001 331.25C169.001 331.25 169.001 331.25 169.001 331.25C169 331.25 169 331.25 169 331.25C169 331.25 169 331.25 169 332C169 332.75 169 332.75 169 332.75C169 332.75 169 332.75 169.001 332.75C169.001 332.75 169.001 332.75 169.001 332.75C169.002 332.75 169.002 332.75 169.002 332.75C169.003 332.75 169.003 332.75 169.004 332.75C169.004 332.75 169.005 332.75 169.005 332.75C169.006 332.75 169.007 332.75 169.007 332.75C169.008 332.75 169.009 332.75 169.01 332.75C169.011 332.75 169.011 332.75 169.012 332.75C169.013 332.75 169.014 332.75 169.015 332.75C169.016 332.75 169.017 332.75 169.018 332.75C169.019 332.75 169.021 332.75 169.022 332.75C169.023 332.75 169.024 332.75 169.026 332.75C169.027 332.75 169.028 332.75 169.03 332.75C169.031 332.75 169.033 332.75 169.034 332.75C169.036 332.75 169.037 332.75 169.039 332.75C169.04 332.75 169.042 332.75 169.044 332.75C169.045 332.75 169.047 332.75 169.049 332.75C169.051 332.75 169.052 332.75 169.054 332.75C169.056 332.75 169.058 332.75 169.06 332.75C169.062 332.75 169.064 332.75 169.066 332.75C169.068 332.75 169.071 332.75 169.073 332.75C169.075 332.75 169.077 332.75 169.079 332.75C169.082 332.75 169.084 332.75 169.086 332.75C169.089 332.75 169.091 332.75 169.094 332.75C169.096 332.75 169.099 332.75 169.101 332.75C169.104 332.75 169.106 332.75 169.109 332.75C169.112 332.75 169.114 332.75 169.117 332.75C169.12 332.75 169.123 332.75 169.125 332.75C169.128 332.75 169.131 332.75 169.134 332.75C169.137 332.75 169.14 332.75 169.143 332.75C169.146 332.75 169.149 332.75 169.152 332.75C169.155 332.75 169.159 332.75 169.162 332.75C169.165 332.75 169.168 332.75 169.172 332.75C169.175 332.75 169.178 332.75 169.182 332.75C169.185 332.75 169.189 332.75 169.192 332.75C169.196 332.75 169.199 332.75 169.203 332.75C169.206 332.75 169.21 332.75 169.214 332.75C169.217 332.75 169.221 332.75 169.225 332.75C169.229 332.75 169.232 332.75 169.236 332.75C169.24 332.75 169.244 332.75 169.248 332.75C169.252 332.75 169.256 332.75 169.26 332.75C169.264 332.75 169.268 332.75 169.272 332.75C169.276 332.75 169.28 332.75 169.285 332.75C169.289 332.75 169.293 332.75 169.297 332.75C169.302 332.75 169.306 332.75 169.311 332.75C169.315 332.75 169.319 332.75 169.324 332.75C169.328 332.75 169.333 332.75 169.337 332.75C169.342 332.75 169.347 332.75 169.351 332.75C169.356 332.75 169.361 332.75 169.365 332.75C169.37 332.75 169.375 332.75 169.38 332.75C169.385 332.75 169.39 332.75 169.395 332.75C169.399 332.75 169.404 332.75 169.409 332.75C169.414 332.75 169.42 332.75 169.425 332.75C169.43 332.75 169.435 332.75 169.44 332.75C169.445 332.75 169.45 332.75 169.456 332.75C169.461 332.75 169.466 332.75 169.472 332.75C169.477 332.75 169.482 332.75 169.488 332.75C169.493 332.75 169.499 332.75 169.504 332.75C169.51 332.75 169.516 332.75 169.521 332.75C169.527 332.75 169.532 332.75 169.538 332.75C169.544 332.75 169.55 332.75 169.555 332.75C169.561 332.75 169.567 332.75 169.573 332.75C169.579 332.75 169.585 332.75 169.591 332.75C169.926 332.75 170.571 332.75 171.212 332.75C172.639 332.75 174.448 332.75 176.65 332.75C180.953 332.75 186.196 332.75 190 332.75L190 331.25ZM169.75 332L169.75 235L168.25 235L168.25 332L169.75 332Z" fill="#0151AF"/>
</svg>
